<mxfile host="app.diagrams.net" modified="2023-10-01T03:11:35.106Z" agent="Mozilla/5.0 (Windows NT 10.0; Win64; x64) AppleWebKit/537.36 (KHTML, like Gecko) Chrome/117.0.0.0 Safari/537.36" etag="nlXfVa5o0Lu9lc-sUEin" version="22.0.0" type="google" pages="2">
  <diagram name="PÃ¡gina-1" id="dBnTWINwmoV4lztcSC5c">
    <mxGraphModel grid="1" page="1" gridSize="10" guides="1" tooltips="1" connect="1" arrows="1" fold="1" pageScale="1" pageWidth="827" pageHeight="1169" math="0" shadow="0">
      <root>
        <mxCell id="0" />
        <mxCell id="1" parent="0" />
        <mxCell id="hg6GUIxH2fCurDM65hha-10" style="edgeStyle=orthogonalEdgeStyle;rounded=0;orthogonalLoop=1;jettySize=auto;html=1;exitX=0.5;exitY=0;exitDx=0;exitDy=0;exitPerimeter=0;entryX=0;entryY=0.5;entryDx=0;entryDy=0;" edge="1" parent="1" source="hg6GUIxH2fCurDM65hha-1" target="hg6GUIxH2fCurDM65hha-7">
          <mxGeometry relative="1" as="geometry" />
        </mxCell>
        <mxCell id="hg6GUIxH2fCurDM65hha-11" style="edgeStyle=orthogonalEdgeStyle;rounded=0;orthogonalLoop=1;jettySize=auto;html=1;exitX=0.5;exitY=0;exitDx=0;exitDy=0;exitPerimeter=0;entryX=0;entryY=0.5;entryDx=0;entryDy=0;" edge="1" parent="1" source="hg6GUIxH2fCurDM65hha-1" target="hg6GUIxH2fCurDM65hha-9">
          <mxGeometry relative="1" as="geometry" />
        </mxCell>
        <mxCell id="hg6GUIxH2fCurDM65hha-12" style="edgeStyle=orthogonalEdgeStyle;rounded=0;orthogonalLoop=1;jettySize=auto;html=1;exitX=0.5;exitY=0;exitDx=0;exitDy=0;exitPerimeter=0;entryX=0;entryY=0.5;entryDx=0;entryDy=0;" edge="1" parent="1" source="hg6GUIxH2fCurDM65hha-1" target="hg6GUIxH2fCurDM65hha-8">
          <mxGeometry relative="1" as="geometry" />
        </mxCell>
        <mxCell id="hg6GUIxH2fCurDM65hha-1" value="" style="shape=cylinder3;whiteSpace=wrap;html=1;boundedLbl=1;backgroundOutline=1;size=15;rotation=90;" vertex="1" parent="1">
          <mxGeometry x="240" y="200" width="60" height="80" as="geometry" />
        </mxCell>
        <mxCell id="hg6GUIxH2fCurDM65hha-6" style="edgeStyle=orthogonalEdgeStyle;rounded=0;orthogonalLoop=1;jettySize=auto;html=1;exitX=1;exitY=0.5;exitDx=0;exitDy=0;entryX=0.5;entryY=1;entryDx=0;entryDy=0;entryPerimeter=0;" edge="1" parent="1" source="hg6GUIxH2fCurDM65hha-3" target="hg6GUIxH2fCurDM65hha-1">
          <mxGeometry relative="1" as="geometry" />
        </mxCell>
        <mxCell id="hg6GUIxH2fCurDM65hha-3" value="" style="shape=message;html=1;html=1;outlineConnect=0;labelPosition=center;verticalLabelPosition=bottom;align=center;verticalAlign=top;" vertex="1" parent="1">
          <mxGeometry x="80" y="220" width="60" height="40" as="geometry" />
        </mxCell>
        <mxCell id="hg6GUIxH2fCurDM65hha-5" value="" style="shape=actor;whiteSpace=wrap;html=1;" vertex="1" parent="1">
          <mxGeometry x="680" y="210" width="40" height="60" as="geometry" />
        </mxCell>
        <mxCell id="hg6GUIxH2fCurDM65hha-17" style="rounded=0;orthogonalLoop=1;jettySize=auto;html=1;exitX=1;exitY=0.5;exitDx=0;exitDy=0;entryX=-0.013;entryY=0.13;entryDx=0;entryDy=0;entryPerimeter=0;" edge="1" parent="1" source="hg6GUIxH2fCurDM65hha-7" target="hg6GUIxH2fCurDM65hha-13">
          <mxGeometry relative="1" as="geometry" />
        </mxCell>
        <mxCell id="hg6GUIxH2fCurDM65hha-7" value="" style="shape=message;html=1;html=1;outlineConnect=0;labelPosition=center;verticalLabelPosition=bottom;align=center;verticalAlign=top;" vertex="1" parent="1">
          <mxGeometry x="370" y="130" width="60" height="40" as="geometry" />
        </mxCell>
        <mxCell id="hg6GUIxH2fCurDM65hha-18" style="edgeStyle=none;rounded=0;orthogonalLoop=1;jettySize=auto;html=1;exitX=1;exitY=0.5;exitDx=0;exitDy=0;entryX=-0.007;entryY=0.877;entryDx=0;entryDy=0;entryPerimeter=0;" edge="1" parent="1" source="hg6GUIxH2fCurDM65hha-8" target="hg6GUIxH2fCurDM65hha-13">
          <mxGeometry relative="1" as="geometry" />
        </mxCell>
        <mxCell id="hg6GUIxH2fCurDM65hha-8" value="" style="shape=message;html=1;html=1;outlineConnect=0;labelPosition=center;verticalLabelPosition=bottom;align=center;verticalAlign=top;" vertex="1" parent="1">
          <mxGeometry x="370" y="310" width="60" height="40" as="geometry" />
        </mxCell>
        <mxCell id="hg6GUIxH2fCurDM65hha-19" value="" style="edgeStyle=none;rounded=0;orthogonalLoop=1;jettySize=auto;html=1;" edge="1" parent="1" source="hg6GUIxH2fCurDM65hha-9" target="hg6GUIxH2fCurDM65hha-13">
          <mxGeometry relative="1" as="geometry" />
        </mxCell>
        <mxCell id="hg6GUIxH2fCurDM65hha-9" value="" style="shape=message;html=1;html=1;outlineConnect=0;labelPosition=center;verticalLabelPosition=bottom;align=center;verticalAlign=top;" vertex="1" parent="1">
          <mxGeometry x="370" y="220" width="60" height="40" as="geometry" />
        </mxCell>
        <mxCell id="hg6GUIxH2fCurDM65hha-22" style="edgeStyle=none;rounded=0;orthogonalLoop=1;jettySize=auto;html=1;exitX=1.008;exitY=0.168;exitDx=0;exitDy=0;entryX=0;entryY=0.69;entryDx=0;entryDy=0;entryPerimeter=0;exitPerimeter=0;" edge="1" parent="1" source="hg6GUIxH2fCurDM65hha-13" target="hg6GUIxH2fCurDM65hha-20">
          <mxGeometry relative="1" as="geometry" />
        </mxCell>
        <mxCell id="hg6GUIxH2fCurDM65hha-23" style="edgeStyle=none;rounded=0;orthogonalLoop=1;jettySize=auto;html=1;exitX=1.012;exitY=0.549;exitDx=0;exitDy=0;entryX=0.029;entryY=0.686;entryDx=0;entryDy=0;entryPerimeter=0;exitPerimeter=0;" edge="1" parent="1" source="hg6GUIxH2fCurDM65hha-13" target="hg6GUIxH2fCurDM65hha-5">
          <mxGeometry relative="1" as="geometry" />
        </mxCell>
        <mxCell id="hg6GUIxH2fCurDM65hha-24" style="edgeStyle=none;rounded=0;orthogonalLoop=1;jettySize=auto;html=1;exitX=1.025;exitY=0.904;exitDx=0;exitDy=0;entryX=0.014;entryY=0.557;entryDx=0;entryDy=0;exitPerimeter=0;entryPerimeter=0;" edge="1" parent="1" source="hg6GUIxH2fCurDM65hha-13" target="hg6GUIxH2fCurDM65hha-21">
          <mxGeometry relative="1" as="geometry" />
        </mxCell>
        <mxCell id="hg6GUIxH2fCurDM65hha-13" value="" style="shape=process;whiteSpace=wrap;html=1;backgroundOutline=1;" vertex="1" parent="1">
          <mxGeometry x="480" y="120" width="170" height="240" as="geometry" />
        </mxCell>
        <mxCell id="hg6GUIxH2fCurDM65hha-20" value="" style="shape=actor;whiteSpace=wrap;html=1;" vertex="1" parent="1">
          <mxGeometry x="680" y="120" width="40" height="60" as="geometry" />
        </mxCell>
        <mxCell id="hg6GUIxH2fCurDM65hha-21" value="" style="shape=actor;whiteSpace=wrap;html=1;" vertex="1" parent="1">
          <mxGeometry x="680" y="300" width="40" height="60" as="geometry" />
        </mxCell>
      </root>
    </mxGraphModel>
  </diagram>
  <diagram id="Fx-bU_KAydMAc5Rlaq4p" name="dfd">
    <mxGraphModel grid="1" page="1" gridSize="10" guides="1" tooltips="1" connect="1" arrows="1" fold="1" pageScale="1" pageWidth="827" pageHeight="1169" math="0" shadow="0">
      <root>
        <mxCell id="0" />
        <mxCell id="1" parent="0" />
        <mxCell id="H5KjhLBraapCvkf6L1EC-3" style="edgeStyle=orthogonalEdgeStyle;rounded=0;orthogonalLoop=1;jettySize=auto;html=1;exitX=0.5;exitY=1;exitDx=0;exitDy=0;entryX=0.5;entryY=0;entryDx=0;entryDy=0;" edge="1" parent="1" source="H5KjhLBraapCvkf6L1EC-1" target="H5KjhLBraapCvkf6L1EC-2">
          <mxGeometry relative="1" as="geometry" />
        </mxCell>
        <mxCell id="H5KjhLBraapCvkf6L1EC-1" value="C.I." style="shape=process;whiteSpace=wrap;html=1;backgroundOutline=1;" vertex="1" parent="1">
          <mxGeometry x="414" y="110" width="120" height="60" as="geometry" />
        </mxCell>
        <mxCell id="H5KjhLBraapCvkf6L1EC-7" style="edgeStyle=orthogonalEdgeStyle;rounded=0;orthogonalLoop=1;jettySize=auto;html=1;exitX=0.5;exitY=1;exitDx=0;exitDy=0;entryX=0.5;entryY=0;entryDx=0;entryDy=0;" edge="1" parent="1" source="H5KjhLBraapCvkf6L1EC-2" target="H5KjhLBraapCvkf6L1EC-6">
          <mxGeometry relative="1" as="geometry" />
        </mxCell>
        <mxCell id="H5KjhLBraapCvkf6L1EC-2" value="PROX_TPS(i)" style="shape=hexagon;perimeter=hexagonPerimeter2;whiteSpace=wrap;html=1;fixedSize=1;" vertex="1" parent="1">
          <mxGeometry x="419" y="210" width="110" height="50" as="geometry" />
        </mxCell>
        <mxCell id="H5KjhLBraapCvkf6L1EC-5" style="edgeStyle=orthogonalEdgeStyle;rounded=0;orthogonalLoop=1;jettySize=auto;html=1;exitX=1;exitY=0.5;exitDx=0;exitDy=0;" edge="1" parent="1" source="H5KjhLBraapCvkf6L1EC-4">
          <mxGeometry relative="1" as="geometry">
            <mxPoint x="470" y="195" as="targetPoint" />
          </mxGeometry>
        </mxCell>
        <mxCell id="H5KjhLBraapCvkf6L1EC-4" value="1" style="ellipse;whiteSpace=wrap;html=1;aspect=fixed;" vertex="1" parent="1">
          <mxGeometry x="350" y="170" width="50" height="50" as="geometry" />
        </mxCell>
        <mxCell id="H5KjhLBraapCvkf6L1EC-10" style="edgeStyle=orthogonalEdgeStyle;rounded=0;orthogonalLoop=1;jettySize=auto;html=1;exitX=0;exitY=0.5;exitDx=0;exitDy=0;entryX=0.5;entryY=0;entryDx=0;entryDy=0;" edge="1" parent="1" source="H5KjhLBraapCvkf6L1EC-6" target="H5KjhLBraapCvkf6L1EC-8">
          <mxGeometry relative="1" as="geometry" />
        </mxCell>
        <mxCell id="H5KjhLBraapCvkf6L1EC-11" style="edgeStyle=orthogonalEdgeStyle;rounded=0;orthogonalLoop=1;jettySize=auto;html=1;exitX=1;exitY=0.5;exitDx=0;exitDy=0;entryX=0.5;entryY=0;entryDx=0;entryDy=0;" edge="1" parent="1" source="H5KjhLBraapCvkf6L1EC-6" target="H5KjhLBraapCvkf6L1EC-9">
          <mxGeometry relative="1" as="geometry" />
        </mxCell>
        <mxCell id="H5KjhLBraapCvkf6L1EC-6" value="TPLL &amp;lt;= TPS(i)" style="rhombus;whiteSpace=wrap;html=1;" vertex="1" parent="1">
          <mxGeometry x="424" y="285" width="100" height="80" as="geometry" />
        </mxCell>
        <mxCell id="H5KjhLBraapCvkf6L1EC-15" style="edgeStyle=orthogonalEdgeStyle;rounded=0;orthogonalLoop=1;jettySize=auto;html=1;exitX=0.5;exitY=1;exitDx=0;exitDy=0;entryX=0.5;entryY=0;entryDx=0;entryDy=0;" edge="1" parent="1" source="H5KjhLBraapCvkf6L1EC-8" target="H5KjhLBraapCvkf6L1EC-185">
          <mxGeometry relative="1" as="geometry" />
        </mxCell>
        <mxCell id="H5KjhLBraapCvkf6L1EC-8" value="T = TPLL" style="rounded=0;whiteSpace=wrap;html=1;" vertex="1" parent="1">
          <mxGeometry x="270" y="345" width="110" height="50" as="geometry" />
        </mxCell>
        <mxCell id="H5KjhLBraapCvkf6L1EC-44" style="edgeStyle=orthogonalEdgeStyle;rounded=0;orthogonalLoop=1;jettySize=auto;html=1;exitX=0.5;exitY=1;exitDx=0;exitDy=0;entryX=0.5;entryY=0;entryDx=0;entryDy=0;" edge="1" parent="1" source="H5KjhLBraapCvkf6L1EC-9" target="H5KjhLBraapCvkf6L1EC-43">
          <mxGeometry relative="1" as="geometry" />
        </mxCell>
        <mxCell id="H5KjhLBraapCvkf6L1EC-9" value="T = TPS(i)" style="rounded=0;whiteSpace=wrap;html=1;" vertex="1" parent="1">
          <mxGeometry x="765" y="350" width="110" height="50" as="geometry" />
        </mxCell>
        <mxCell id="H5KjhLBraapCvkf6L1EC-16" style="edgeStyle=orthogonalEdgeStyle;rounded=0;orthogonalLoop=1;jettySize=auto;html=1;exitX=0.5;exitY=1;exitDx=0;exitDy=0;entryX=0.5;entryY=0;entryDx=0;entryDy=0;" edge="1" parent="1" source="H5KjhLBraapCvkf6L1EC-12" target="H5KjhLBraapCvkf6L1EC-14">
          <mxGeometry relative="1" as="geometry" />
        </mxCell>
        <mxCell id="H5KjhLBraapCvkf6L1EC-12" value="IA" style="shape=hexagon;perimeter=hexagonPerimeter2;whiteSpace=wrap;html=1;fixedSize=1;" vertex="1" parent="1">
          <mxGeometry x="270" y="495" width="110" height="50" as="geometry" />
        </mxCell>
        <mxCell id="H5KjhLBraapCvkf6L1EC-19" style="edgeStyle=orthogonalEdgeStyle;rounded=0;orthogonalLoop=1;jettySize=auto;html=1;exitX=0.5;exitY=1;exitDx=0;exitDy=0;entryX=0.5;entryY=0;entryDx=0;entryDy=0;" edge="1" parent="1" source="H5KjhLBraapCvkf6L1EC-14" target="H5KjhLBraapCvkf6L1EC-20">
          <mxGeometry relative="1" as="geometry">
            <mxPoint x="430" y="675" as="targetPoint" />
          </mxGeometry>
        </mxCell>
        <mxCell id="H5KjhLBraapCvkf6L1EC-14" value="TPLL = T + IA" style="rounded=0;whiteSpace=wrap;html=1;" vertex="1" parent="1">
          <mxGeometry x="270" y="565" width="110" height="50" as="geometry" />
        </mxCell>
        <mxCell id="H5KjhLBraapCvkf6L1EC-24" style="edgeStyle=orthogonalEdgeStyle;rounded=0;orthogonalLoop=1;jettySize=auto;html=1;exitX=1;exitY=0.5;exitDx=0;exitDy=0;entryX=0.5;entryY=0;entryDx=0;entryDy=0;" edge="1" parent="1" source="H5KjhLBraapCvkf6L1EC-18" target="H5KjhLBraapCvkf6L1EC-23">
          <mxGeometry relative="1" as="geometry" />
        </mxCell>
        <mxCell id="H5KjhLBraapCvkf6L1EC-25" value="SI" style="edgeLabel;html=1;align=center;verticalAlign=middle;resizable=0;points=[];" connectable="0" vertex="1" parent="H5KjhLBraapCvkf6L1EC-24">
          <mxGeometry x="-0.4821" relative="1" as="geometry">
            <mxPoint as="offset" />
          </mxGeometry>
        </mxCell>
        <mxCell id="H5KjhLBraapCvkf6L1EC-26" style="edgeStyle=orthogonalEdgeStyle;rounded=0;orthogonalLoop=1;jettySize=auto;html=1;exitX=0;exitY=0.5;exitDx=0;exitDy=0;entryX=0.5;entryY=0;entryDx=0;entryDy=0;" edge="1" parent="1" source="H5KjhLBraapCvkf6L1EC-18" target="H5KjhLBraapCvkf6L1EC-29">
          <mxGeometry relative="1" as="geometry">
            <mxPoint x="530" y="1460" as="targetPoint" />
            <mxPoint x="275" y="1070" as="sourcePoint" />
            <Array as="points">
              <mxPoint x="255" y="930" />
              <mxPoint x="255" y="1150" />
              <mxPoint x="530" y="1150" />
            </Array>
          </mxGeometry>
        </mxCell>
        <mxCell id="H5KjhLBraapCvkf6L1EC-27" value="NO" style="edgeLabel;html=1;align=center;verticalAlign=middle;resizable=0;points=[];" connectable="0" vertex="1" parent="H5KjhLBraapCvkf6L1EC-26">
          <mxGeometry x="-0.5312" y="2" relative="1" as="geometry">
            <mxPoint as="offset" />
          </mxGeometry>
        </mxCell>
        <mxCell id="H5KjhLBraapCvkf6L1EC-18" value="NHO = 0" style="rhombus;whiteSpace=wrap;html=1;" vertex="1" parent="1">
          <mxGeometry x="275" y="890" width="100" height="80" as="geometry" />
        </mxCell>
        <mxCell id="H5KjhLBraapCvkf6L1EC-21" style="edgeStyle=orthogonalEdgeStyle;rounded=0;orthogonalLoop=1;jettySize=auto;html=1;exitX=0.5;exitY=1;exitDx=0;exitDy=0;entryX=0.5;entryY=0;entryDx=0;entryDy=0;" edge="1" parent="1" source="H5KjhLBraapCvkf6L1EC-20" target="H5KjhLBraapCvkf6L1EC-126">
          <mxGeometry relative="1" as="geometry">
            <mxPoint x="325" y="745" as="targetPoint" />
          </mxGeometry>
        </mxCell>
        <mxCell id="H5KjhLBraapCvkf6L1EC-20" value="Ns = Ns + 1" style="rounded=0;whiteSpace=wrap;html=1;" vertex="1" parent="1">
          <mxGeometry x="270" y="635" width="110" height="50" as="geometry" />
        </mxCell>
        <mxCell id="H5KjhLBraapCvkf6L1EC-42" style="edgeStyle=orthogonalEdgeStyle;rounded=0;orthogonalLoop=1;jettySize=auto;html=1;exitX=0.5;exitY=1;exitDx=0;exitDy=0;entryX=0.5;entryY=0;entryDx=0;entryDy=0;" edge="1" parent="1" source="H5KjhLBraapCvkf6L1EC-23" target="H5KjhLBraapCvkf6L1EC-29">
          <mxGeometry relative="1" as="geometry">
            <mxPoint x="530" y="1050" as="sourcePoint" />
          </mxGeometry>
        </mxCell>
        <mxCell id="H5KjhLBraapCvkf6L1EC-23" value="PROCESAR_BLOQUE" style="shape=hexagon;perimeter=hexagonPerimeter2;whiteSpace=wrap;html=1;fixedSize=1;" vertex="1" parent="1">
          <mxGeometry x="460" y="960" width="140" height="50" as="geometry" />
        </mxCell>
        <mxCell id="H5KjhLBraapCvkf6L1EC-31" style="edgeStyle=orthogonalEdgeStyle;rounded=0;orthogonalLoop=1;jettySize=auto;html=1;exitX=0;exitY=0.5;exitDx=0;exitDy=0;entryX=1;entryY=0.5;entryDx=0;entryDy=0;" edge="1" parent="1" source="H5KjhLBraapCvkf6L1EC-29" target="H5KjhLBraapCvkf6L1EC-30">
          <mxGeometry relative="1" as="geometry" />
        </mxCell>
        <mxCell id="H5KjhLBraapCvkf6L1EC-37" value="NO" style="edgeLabel;html=1;align=center;verticalAlign=middle;resizable=0;points=[];" connectable="0" vertex="1" parent="H5KjhLBraapCvkf6L1EC-31">
          <mxGeometry x="-0.1333" y="-1" relative="1" as="geometry">
            <mxPoint as="offset" />
          </mxGeometry>
        </mxCell>
        <mxCell id="H5KjhLBraapCvkf6L1EC-33" style="edgeStyle=orthogonalEdgeStyle;rounded=0;orthogonalLoop=1;jettySize=auto;html=1;exitX=1;exitY=0.5;exitDx=0;exitDy=0;entryX=0;entryY=0.5;entryDx=0;entryDy=0;" edge="1" parent="1" source="H5KjhLBraapCvkf6L1EC-29" target="H5KjhLBraapCvkf6L1EC-32">
          <mxGeometry relative="1" as="geometry" />
        </mxCell>
        <mxCell id="H5KjhLBraapCvkf6L1EC-36" value="SI" style="edgeLabel;html=1;align=center;verticalAlign=middle;resizable=0;points=[];" connectable="0" vertex="1" parent="H5KjhLBraapCvkf6L1EC-33">
          <mxGeometry x="-0.2286" y="1" relative="1" as="geometry">
            <mxPoint as="offset" />
          </mxGeometry>
        </mxCell>
        <mxCell id="H5KjhLBraapCvkf6L1EC-29" value="T &amp;lt; TF" style="rhombus;whiteSpace=wrap;html=1;" vertex="1" parent="1">
          <mxGeometry x="480" y="1210" width="100" height="80" as="geometry" />
        </mxCell>
        <mxCell id="H5KjhLBraapCvkf6L1EC-30" value="1" style="ellipse;whiteSpace=wrap;html=1;aspect=fixed;" vertex="1" parent="1">
          <mxGeometry x="340" y="1225" width="50" height="50" as="geometry" />
        </mxCell>
        <mxCell id="H5KjhLBraapCvkf6L1EC-39" style="edgeStyle=orthogonalEdgeStyle;rounded=0;orthogonalLoop=1;jettySize=auto;html=1;exitX=1;exitY=0.5;exitDx=0;exitDy=0;entryX=0;entryY=0.5;entryDx=0;entryDy=0;" edge="1" parent="1" source="H5KjhLBraapCvkf6L1EC-32" target="H5KjhLBraapCvkf6L1EC-163">
          <mxGeometry relative="1" as="geometry">
            <mxPoint x="840" y="1360" as="targetPoint" />
          </mxGeometry>
        </mxCell>
        <mxCell id="H5KjhLBraapCvkf6L1EC-160" style="edgeStyle=orthogonalEdgeStyle;rounded=0;orthogonalLoop=1;jettySize=auto;html=1;exitX=0.5;exitY=1;exitDx=0;exitDy=0;entryX=0.5;entryY=0;entryDx=0;entryDy=0;" edge="1" parent="1" source="H5KjhLBraapCvkf6L1EC-32" target="H5KjhLBraapCvkf6L1EC-158">
          <mxGeometry relative="1" as="geometry" />
        </mxCell>
        <mxCell id="H5KjhLBraapCvkf6L1EC-161" value="SI" style="edgeLabel;html=1;align=center;verticalAlign=middle;resizable=0;points=[];" connectable="0" vertex="1" parent="H5KjhLBraapCvkf6L1EC-160">
          <mxGeometry x="-0.1143" relative="1" as="geometry">
            <mxPoint as="offset" />
          </mxGeometry>
        </mxCell>
        <mxCell id="H5KjhLBraapCvkf6L1EC-32" value="Ns &amp;gt; 0" style="rhombus;whiteSpace=wrap;html=1;" vertex="1" parent="1">
          <mxGeometry x="650" y="1210" width="100" height="80" as="geometry" />
        </mxCell>
        <mxCell id="H5KjhLBraapCvkf6L1EC-41" style="edgeStyle=orthogonalEdgeStyle;rounded=0;orthogonalLoop=1;jettySize=auto;html=1;exitX=0.5;exitY=1;exitDx=0;exitDy=0;entryX=0.5;entryY=0;entryDx=0;entryDy=0;" edge="1" parent="1" source="H5KjhLBraapCvkf6L1EC-38" target="H5KjhLBraapCvkf6L1EC-40">
          <mxGeometry relative="1" as="geometry" />
        </mxCell>
        <mxCell id="H5KjhLBraapCvkf6L1EC-38" value="PEC = STS - STLL - STP&lt;br&gt;PBC = (BC *100)/(BC+BI)&lt;br&gt;PEA = STEA / NH" style="rounded=0;whiteSpace=wrap;html=1;" vertex="1" parent="1">
          <mxGeometry x="803.5" y="1330" width="160" height="50" as="geometry" />
        </mxCell>
        <mxCell id="H5KjhLBraapCvkf6L1EC-79" style="edgeStyle=orthogonalEdgeStyle;rounded=0;orthogonalLoop=1;jettySize=auto;html=1;entryX=0.5;entryY=0;entryDx=0;entryDy=0;" edge="1" parent="1" source="H5KjhLBraapCvkf6L1EC-40">
          <mxGeometry relative="1" as="geometry">
            <mxPoint x="883.5" y="1550" as="targetPoint" />
          </mxGeometry>
        </mxCell>
        <mxCell id="H5KjhLBraapCvkf6L1EC-40" value="NH, PEC, PBC, PEA" style="shape=document;whiteSpace=wrap;html=1;boundedLbl=1;" vertex="1" parent="1">
          <mxGeometry x="823.5" y="1430" width="120" height="80" as="geometry" />
        </mxCell>
        <mxCell id="H5KjhLBraapCvkf6L1EC-46" style="edgeStyle=orthogonalEdgeStyle;rounded=0;orthogonalLoop=1;jettySize=auto;html=1;exitX=0.5;exitY=1;exitDx=0;exitDy=0;entryX=0.5;entryY=0;entryDx=0;entryDy=0;" edge="1" parent="1" source="H5KjhLBraapCvkf6L1EC-43" target="H5KjhLBraapCvkf6L1EC-45">
          <mxGeometry relative="1" as="geometry" />
        </mxCell>
        <mxCell id="H5KjhLBraapCvkf6L1EC-43" value="STS = STS + T" style="rounded=0;whiteSpace=wrap;html=1;" vertex="1" parent="1">
          <mxGeometry x="765" y="450" width="110" height="50" as="geometry" />
        </mxCell>
        <mxCell id="H5KjhLBraapCvkf6L1EC-48" style="edgeStyle=orthogonalEdgeStyle;rounded=0;orthogonalLoop=1;jettySize=auto;html=1;exitX=0.5;exitY=1;exitDx=0;exitDy=0;entryX=0.5;entryY=0;entryDx=0;entryDy=0;" edge="1" parent="1" source="H5KjhLBraapCvkf6L1EC-45" target="H5KjhLBraapCvkf6L1EC-47">
          <mxGeometry relative="1" as="geometry" />
        </mxCell>
        <mxCell id="H5KjhLBraapCvkf6L1EC-45" value="TPS(i) = H.V." style="rounded=0;whiteSpace=wrap;html=1;" vertex="1" parent="1">
          <mxGeometry x="765" y="530" width="110" height="50" as="geometry" />
        </mxCell>
        <mxCell id="H5KjhLBraapCvkf6L1EC-50" style="edgeStyle=orthogonalEdgeStyle;rounded=0;orthogonalLoop=1;jettySize=auto;html=1;exitX=0.5;exitY=1;exitDx=0;exitDy=0;entryX=0.5;entryY=0;entryDx=0;entryDy=0;" edge="1" parent="1" source="H5KjhLBraapCvkf6L1EC-47" target="H5KjhLBraapCvkf6L1EC-49">
          <mxGeometry relative="1" as="geometry" />
        </mxCell>
        <mxCell id="H5KjhLBraapCvkf6L1EC-47" value="NHO = NHO - 1" style="rounded=0;whiteSpace=wrap;html=1;" vertex="1" parent="1">
          <mxGeometry x="765" y="620" width="110" height="50" as="geometry" />
        </mxCell>
        <mxCell id="H5KjhLBraapCvkf6L1EC-54" style="edgeStyle=orthogonalEdgeStyle;rounded=0;orthogonalLoop=1;jettySize=auto;html=1;exitX=0.5;exitY=1;exitDx=0;exitDy=0;entryX=0.5;entryY=0;entryDx=0;entryDy=0;" edge="1" parent="1" source="H5KjhLBraapCvkf6L1EC-49" target="H5KjhLBraapCvkf6L1EC-89">
          <mxGeometry relative="1" as="geometry">
            <mxPoint x="700" y="850" as="targetPoint" />
          </mxGeometry>
        </mxCell>
        <mxCell id="H5KjhLBraapCvkf6L1EC-49" value="Ns = Ns - 1" style="rounded=0;whiteSpace=wrap;html=1;" vertex="1" parent="1">
          <mxGeometry x="765" y="715" width="110" height="50" as="geometry" />
        </mxCell>
        <mxCell id="H5KjhLBraapCvkf6L1EC-52" style="edgeStyle=orthogonalEdgeStyle;rounded=0;orthogonalLoop=1;jettySize=auto;html=1;exitX=0;exitY=0.5;exitDx=0;exitDy=0;entryX=0.5;entryY=0;entryDx=0;entryDy=0;" edge="1" parent="1" source="H5KjhLBraapCvkf6L1EC-51" target="H5KjhLBraapCvkf6L1EC-29">
          <mxGeometry relative="1" as="geometry">
            <Array as="points">
              <mxPoint x="670" y="1030" />
              <mxPoint x="670" y="1180" />
              <mxPoint x="530" y="1180" />
            </Array>
          </mxGeometry>
        </mxCell>
        <mxCell id="H5KjhLBraapCvkf6L1EC-53" value="NO" style="edgeLabel;html=1;align=center;verticalAlign=middle;resizable=0;points=[];" connectable="0" vertex="1" parent="H5KjhLBraapCvkf6L1EC-52">
          <mxGeometry x="-0.7524" y="2" relative="1" as="geometry">
            <mxPoint as="offset" />
          </mxGeometry>
        </mxCell>
        <mxCell id="H5KjhLBraapCvkf6L1EC-56" style="edgeStyle=orthogonalEdgeStyle;rounded=0;orthogonalLoop=1;jettySize=auto;html=1;exitX=1;exitY=0.5;exitDx=0;exitDy=0;entryX=0.5;entryY=0;entryDx=0;entryDy=0;" edge="1" parent="1" source="H5KjhLBraapCvkf6L1EC-51" target="H5KjhLBraapCvkf6L1EC-55">
          <mxGeometry relative="1" as="geometry" />
        </mxCell>
        <mxCell id="H5KjhLBraapCvkf6L1EC-51" value="NHO = 0 &amp;amp; Ns &amp;gt;=1" style="rhombus;whiteSpace=wrap;html=1;" vertex="1" parent="1">
          <mxGeometry x="765" y="990" width="110" height="80" as="geometry" />
        </mxCell>
        <mxCell id="H5KjhLBraapCvkf6L1EC-57" style="edgeStyle=orthogonalEdgeStyle;rounded=0;orthogonalLoop=1;jettySize=auto;html=1;exitX=0.5;exitY=1;exitDx=0;exitDy=0;entryX=0.5;entryY=0;entryDx=0;entryDy=0;" edge="1" parent="1" source="H5KjhLBraapCvkf6L1EC-55" target="H5KjhLBraapCvkf6L1EC-29">
          <mxGeometry relative="1" as="geometry">
            <Array as="points">
              <mxPoint x="970" y="1180" />
              <mxPoint x="530" y="1180" />
            </Array>
          </mxGeometry>
        </mxCell>
        <mxCell id="H5KjhLBraapCvkf6L1EC-55" value="PROCESAR_BLOQUE" style="shape=hexagon;perimeter=hexagonPerimeter2;whiteSpace=wrap;html=1;fixedSize=1;" vertex="1" parent="1">
          <mxGeometry x="900" y="1080" width="140" height="50" as="geometry" />
        </mxCell>
        <mxCell id="H5KjhLBraapCvkf6L1EC-60" style="edgeStyle=orthogonalEdgeStyle;rounded=0;orthogonalLoop=1;jettySize=auto;html=1;exitX=0.5;exitY=1;exitDx=0;exitDy=0;entryX=0.5;entryY=0;entryDx=0;entryDy=0;" edge="1" parent="1" source="H5KjhLBraapCvkf6L1EC-58" target="H5KjhLBraapCvkf6L1EC-59">
          <mxGeometry relative="1" as="geometry" />
        </mxCell>
        <mxCell id="H5KjhLBraapCvkf6L1EC-58" value="PROCESAR_BLOQUE" style="shape=hexagon;perimeter=hexagonPerimeter2;whiteSpace=wrap;html=1;fixedSize=1;" vertex="1" parent="1">
          <mxGeometry x="-300" y="70" width="140" height="50" as="geometry" />
        </mxCell>
        <mxCell id="H5KjhLBraapCvkf6L1EC-63" style="edgeStyle=orthogonalEdgeStyle;rounded=0;orthogonalLoop=1;jettySize=auto;html=1;exitX=1;exitY=0.5;exitDx=0;exitDy=0;entryX=0.5;entryY=0;entryDx=0;entryDy=0;" edge="1" parent="1" source="H5KjhLBraapCvkf6L1EC-59" target="H5KjhLBraapCvkf6L1EC-87">
          <mxGeometry relative="1" as="geometry" />
        </mxCell>
        <mxCell id="H5KjhLBraapCvkf6L1EC-65" value="NO" style="edgeLabel;html=1;align=center;verticalAlign=middle;resizable=0;points=[];" connectable="0" vertex="1" parent="H5KjhLBraapCvkf6L1EC-63">
          <mxGeometry x="-0.5375" y="-1" relative="1" as="geometry">
            <mxPoint x="-1" as="offset" />
          </mxGeometry>
        </mxCell>
        <mxCell id="H5KjhLBraapCvkf6L1EC-64" style="edgeStyle=orthogonalEdgeStyle;rounded=0;orthogonalLoop=1;jettySize=auto;html=1;exitX=0;exitY=0.5;exitDx=0;exitDy=0;entryX=0.5;entryY=0;entryDx=0;entryDy=0;" edge="1" parent="1" source="H5KjhLBraapCvkf6L1EC-59" target="H5KjhLBraapCvkf6L1EC-62">
          <mxGeometry relative="1" as="geometry" />
        </mxCell>
        <mxCell id="H5KjhLBraapCvkf6L1EC-66" value="SI" style="edgeLabel;html=1;align=center;verticalAlign=middle;resizable=0;points=[];" connectable="0" vertex="1" parent="H5KjhLBraapCvkf6L1EC-64">
          <mxGeometry x="-0.5518" relative="1" as="geometry">
            <mxPoint x="1" as="offset" />
          </mxGeometry>
        </mxCell>
        <mxCell id="H5KjhLBraapCvkf6L1EC-59" value="NH &amp;lt;= Ns" style="rhombus;whiteSpace=wrap;html=1;" vertex="1" parent="1">
          <mxGeometry x="-270" y="170" width="80" height="80" as="geometry" />
        </mxCell>
        <mxCell id="H5KjhLBraapCvkf6L1EC-61" value="BI = BI + 1" style="rounded=0;whiteSpace=wrap;html=1;" vertex="1" parent="1">
          <mxGeometry x="-170" y="330" width="110" height="50" as="geometry" />
        </mxCell>
        <mxCell id="H5KjhLBraapCvkf6L1EC-85" style="edgeStyle=orthogonalEdgeStyle;rounded=0;orthogonalLoop=1;jettySize=auto;html=1;exitX=0.5;exitY=1;exitDx=0;exitDy=0;entryX=0.5;entryY=0;entryDx=0;entryDy=0;" edge="1" parent="1" source="H5KjhLBraapCvkf6L1EC-62" target="H5KjhLBraapCvkf6L1EC-84">
          <mxGeometry relative="1" as="geometry" />
        </mxCell>
        <mxCell id="H5KjhLBraapCvkf6L1EC-62" value="NB = NH" style="rounded=0;whiteSpace=wrap;html=1;" vertex="1" parent="1">
          <mxGeometry x="-400" y="230" width="110" height="50" as="geometry" />
        </mxCell>
        <mxCell id="H5KjhLBraapCvkf6L1EC-67" value="" style="shape=card;whiteSpace=wrap;html=1;" vertex="1" parent="1">
          <mxGeometry x="-400" y="445" width="330" height="395" as="geometry" />
        </mxCell>
        <mxCell id="H5KjhLBraapCvkf6L1EC-70" style="edgeStyle=orthogonalEdgeStyle;rounded=0;orthogonalLoop=1;jettySize=auto;html=1;exitX=0.5;exitY=1;exitDx=0;exitDy=0;entryX=0.5;entryY=0;entryDx=0;entryDy=0;" edge="1" parent="1" source="H5KjhLBraapCvkf6L1EC-68" target="H5KjhLBraapCvkf6L1EC-69">
          <mxGeometry relative="1" as="geometry" />
        </mxCell>
        <mxCell id="H5KjhLBraapCvkf6L1EC-68" value="TP" style="shape=hexagon;perimeter=hexagonPerimeter2;whiteSpace=wrap;html=1;fixedSize=1;" vertex="1" parent="1">
          <mxGeometry x="-295" y="465" width="120" height="60" as="geometry" />
        </mxCell>
        <mxCell id="H5KjhLBraapCvkf6L1EC-137" style="edgeStyle=orthogonalEdgeStyle;rounded=0;orthogonalLoop=1;jettySize=auto;html=1;exitX=0.5;exitY=1;exitDx=0;exitDy=0;entryX=0.5;entryY=0;entryDx=0;entryDy=0;" edge="1" parent="1" source="H5KjhLBraapCvkf6L1EC-69" target="H5KjhLBraapCvkf6L1EC-194">
          <mxGeometry relative="1" as="geometry">
            <mxPoint x="-235" y="650" as="targetPoint" />
          </mxGeometry>
        </mxCell>
        <mxCell id="H5KjhLBraapCvkf6L1EC-69" value="TPS(i) = T + TP" style="rounded=0;whiteSpace=wrap;html=1;" vertex="1" parent="1">
          <mxGeometry x="-290" y="560" width="110" height="50" as="geometry" />
        </mxCell>
        <mxCell id="H5KjhLBraapCvkf6L1EC-147" style="edgeStyle=orthogonalEdgeStyle;rounded=0;orthogonalLoop=1;jettySize=auto;html=1;exitX=0.5;exitY=1;exitDx=0;exitDy=0;entryX=0.5;entryY=0;entryDx=0;entryDy=0;" edge="1" parent="1" source="H5KjhLBraapCvkf6L1EC-71" target="H5KjhLBraapCvkf6L1EC-146">
          <mxGeometry relative="1" as="geometry" />
        </mxCell>
        <mxCell id="H5KjhLBraapCvkf6L1EC-71" value="STEA = STEA + T - ITEA(i)" style="rounded=0;whiteSpace=wrap;html=1;" vertex="1" parent="1">
          <mxGeometry x="-312.5" y="690" width="155" height="50" as="geometry" />
        </mxCell>
        <mxCell id="H5KjhLBraapCvkf6L1EC-73" value="FOR i 1... NB" style="text;html=1;align=center;verticalAlign=middle;resizable=0;points=[];autosize=1;strokeColor=none;fillColor=none;" vertex="1" parent="1">
          <mxGeometry x="-390" y="445" width="90" height="30" as="geometry" />
        </mxCell>
        <mxCell id="H5KjhLBraapCvkf6L1EC-74" style="edgeStyle=orthogonalEdgeStyle;rounded=0;orthogonalLoop=1;jettySize=auto;html=1;exitX=0.5;exitY=1;exitDx=0;exitDy=0;entryX=0.5;entryY=0;entryDx=0;entryDy=0;entryPerimeter=0;" edge="1" parent="1" source="H5KjhLBraapCvkf6L1EC-84" target="H5KjhLBraapCvkf6L1EC-67">
          <mxGeometry relative="1" as="geometry" />
        </mxCell>
        <mxCell id="H5KjhLBraapCvkf6L1EC-75" style="edgeStyle=orthogonalEdgeStyle;rounded=0;orthogonalLoop=1;jettySize=auto;html=1;exitX=0.5;exitY=1;exitDx=0;exitDy=0;entryX=0.5;entryY=0;entryDx=0;entryDy=0;entryPerimeter=0;" edge="1" parent="1" source="H5KjhLBraapCvkf6L1EC-61" target="H5KjhLBraapCvkf6L1EC-67">
          <mxGeometry relative="1" as="geometry" />
        </mxCell>
        <mxCell id="H5KjhLBraapCvkf6L1EC-76" value="FIN" style="ellipse;whiteSpace=wrap;html=1;aspect=fixed;" vertex="1" parent="1">
          <mxGeometry x="-260" y="960" width="50" height="50" as="geometry" />
        </mxCell>
        <mxCell id="H5KjhLBraapCvkf6L1EC-78" value="FIN" style="ellipse;whiteSpace=wrap;html=1;aspect=fixed;" vertex="1" parent="1">
          <mxGeometry x="858.5" y="1550" width="50" height="50" as="geometry" />
        </mxCell>
        <mxCell id="H5KjhLBraapCvkf6L1EC-81" style="edgeStyle=orthogonalEdgeStyle;rounded=0;orthogonalLoop=1;jettySize=auto;html=1;exitX=0.5;exitY=1;exitDx=0;exitDy=0;entryX=0.5;entryY=0;entryDx=0;entryDy=0;" edge="1" parent="1" source="H5KjhLBraapCvkf6L1EC-80" target="H5KjhLBraapCvkf6L1EC-51">
          <mxGeometry relative="1" as="geometry">
            <mxPoint x="870" y="990" as="targetPoint" />
            <Array as="points">
              <mxPoint x="710" y="960" />
              <mxPoint x="820" y="960" />
            </Array>
          </mxGeometry>
        </mxCell>
        <mxCell id="H5KjhLBraapCvkf6L1EC-80" value="ITEA(i) = T" style="rounded=0;whiteSpace=wrap;html=1;" vertex="1" parent="1">
          <mxGeometry x="655" y="880" width="110" height="50" as="geometry" />
        </mxCell>
        <mxCell id="H5KjhLBraapCvkf6L1EC-83" style="edgeStyle=orthogonalEdgeStyle;rounded=0;orthogonalLoop=1;jettySize=auto;html=1;exitX=0;exitY=0.5;exitDx=0;exitDy=0;exitPerimeter=0;entryX=1;entryY=0.5;entryDx=0;entryDy=0;" edge="1" parent="1" source="H5KjhLBraapCvkf6L1EC-82" target="H5KjhLBraapCvkf6L1EC-1">
          <mxGeometry relative="1" as="geometry" />
        </mxCell>
        <mxCell id="H5KjhLBraapCvkf6L1EC-82" value="ITEA(i) = 0" style="whiteSpace=wrap;html=1;shape=mxgraph.basic.document;fillColor=#E6E6E6;" vertex="1" parent="1">
          <mxGeometry x="565" y="97.5" width="85" height="85" as="geometry" />
        </mxCell>
        <mxCell id="H5KjhLBraapCvkf6L1EC-84" value="BC = BC + 1" style="rounded=0;whiteSpace=wrap;html=1;" vertex="1" parent="1">
          <mxGeometry x="-400" y="330" width="110" height="50" as="geometry" />
        </mxCell>
        <mxCell id="H5KjhLBraapCvkf6L1EC-88" style="edgeStyle=orthogonalEdgeStyle;rounded=0;orthogonalLoop=1;jettySize=auto;html=1;exitX=0.5;exitY=1;exitDx=0;exitDy=0;entryX=0.5;entryY=0;entryDx=0;entryDy=0;" edge="1" parent="1" source="H5KjhLBraapCvkf6L1EC-87" target="H5KjhLBraapCvkf6L1EC-61">
          <mxGeometry relative="1" as="geometry" />
        </mxCell>
        <mxCell id="H5KjhLBraapCvkf6L1EC-87" value="NB = Ns" style="rounded=0;whiteSpace=wrap;html=1;" vertex="1" parent="1">
          <mxGeometry x="-170" y="230" width="110" height="50" as="geometry" />
        </mxCell>
        <mxCell id="H5KjhLBraapCvkf6L1EC-105" style="edgeStyle=orthogonalEdgeStyle;rounded=0;orthogonalLoop=1;jettySize=auto;html=1;exitX=0;exitY=0.5;exitDx=0;exitDy=0;entryX=0.5;entryY=0;entryDx=0;entryDy=0;" edge="1" parent="1" source="H5KjhLBraapCvkf6L1EC-89" target="H5KjhLBraapCvkf6L1EC-80">
          <mxGeometry relative="1" as="geometry" />
        </mxCell>
        <mxCell id="H5KjhLBraapCvkf6L1EC-188" value="SI" style="edgeLabel;html=1;align=center;verticalAlign=middle;resizable=0;points=[];" connectable="0" vertex="1" parent="H5KjhLBraapCvkf6L1EC-105">
          <mxGeometry x="-0.554" y="1" relative="1" as="geometry">
            <mxPoint x="3" y="-1" as="offset" />
          </mxGeometry>
        </mxCell>
        <mxCell id="H5KjhLBraapCvkf6L1EC-106" style="edgeStyle=orthogonalEdgeStyle;rounded=0;orthogonalLoop=1;jettySize=auto;html=1;exitX=1;exitY=0.5;exitDx=0;exitDy=0;entryX=0.5;entryY=0;entryDx=0;entryDy=0;" edge="1" parent="1" source="H5KjhLBraapCvkf6L1EC-89" target="H5KjhLBraapCvkf6L1EC-51">
          <mxGeometry relative="1" as="geometry">
            <Array as="points">
              <mxPoint x="895" y="840" />
              <mxPoint x="895" y="960" />
              <mxPoint x="820" y="960" />
            </Array>
          </mxGeometry>
        </mxCell>
        <mxCell id="H5KjhLBraapCvkf6L1EC-89" value="Ns &amp;gt; NHO" style="rhombus;whiteSpace=wrap;html=1;" vertex="1" parent="1">
          <mxGeometry x="765" y="800" width="110" height="80" as="geometry" />
        </mxCell>
        <mxCell id="H5KjhLBraapCvkf6L1EC-110" style="edgeStyle=orthogonalEdgeStyle;rounded=0;orthogonalLoop=1;jettySize=auto;html=1;exitX=0.5;exitY=1;exitDx=0;exitDy=0;entryX=0.5;entryY=0;entryDx=0;entryDy=0;" edge="1" parent="1" source="H5KjhLBraapCvkf6L1EC-108" target="H5KjhLBraapCvkf6L1EC-18">
          <mxGeometry relative="1" as="geometry" />
        </mxCell>
        <mxCell id="H5KjhLBraapCvkf6L1EC-108" value="ASIGNAR_ITEA" style="shape=hexagon;perimeter=hexagonPerimeter2;whiteSpace=wrap;html=1;fixedSize=1;" vertex="1" parent="1">
          <mxGeometry x="270" y="795" width="110" height="50" as="geometry" />
        </mxCell>
        <mxCell id="H5KjhLBraapCvkf6L1EC-121" style="edgeStyle=orthogonalEdgeStyle;rounded=0;orthogonalLoop=1;jettySize=auto;html=1;exitX=0.5;exitY=1;exitDx=0;exitDy=0;exitPerimeter=0;entryX=0.5;entryY=0;entryDx=0;entryDy=0;" edge="1" parent="1" source="H5KjhLBraapCvkf6L1EC-116" target="H5KjhLBraapCvkf6L1EC-120">
          <mxGeometry relative="1" as="geometry" />
        </mxCell>
        <mxCell id="H5KjhLBraapCvkf6L1EC-116" value="" style="shape=card;whiteSpace=wrap;html=1;" vertex="1" parent="1">
          <mxGeometry x="1490" y="240" width="370" height="295" as="geometry" />
        </mxCell>
        <mxCell id="H5KjhLBraapCvkf6L1EC-111" value="ASIGNAR_ITEA" style="shape=hexagon;perimeter=hexagonPerimeter2;whiteSpace=wrap;html=1;fixedSize=1;" vertex="1" parent="1">
          <mxGeometry x="1620" y="135" width="110" height="50" as="geometry" />
        </mxCell>
        <mxCell id="H5KjhLBraapCvkf6L1EC-112" value="ITEA(i) = T" style="rounded=0;whiteSpace=wrap;html=1;" vertex="1" parent="1">
          <mxGeometry x="1720" y="415" width="110" height="50" as="geometry" />
        </mxCell>
        <mxCell id="H5KjhLBraapCvkf6L1EC-115" style="edgeStyle=orthogonalEdgeStyle;rounded=0;orthogonalLoop=1;jettySize=auto;html=1;exitX=1;exitY=0.5;exitDx=0;exitDy=0;entryX=0.5;entryY=0;entryDx=0;entryDy=0;" edge="1" parent="1" source="H5KjhLBraapCvkf6L1EC-113" target="H5KjhLBraapCvkf6L1EC-112">
          <mxGeometry relative="1" as="geometry">
            <Array as="points">
              <mxPoint x="1775" y="330" />
            </Array>
          </mxGeometry>
        </mxCell>
        <mxCell id="H5KjhLBraapCvkf6L1EC-122" value="SI" style="edgeLabel;html=1;align=center;verticalAlign=middle;resizable=0;points=[];" connectable="0" vertex="1" parent="H5KjhLBraapCvkf6L1EC-115">
          <mxGeometry x="-0.3025" y="-3" relative="1" as="geometry">
            <mxPoint as="offset" />
          </mxGeometry>
        </mxCell>
        <mxCell id="H5KjhLBraapCvkf6L1EC-113" value="TPS(i) = H.V. &amp;amp; ITEA(i) = H.V." style="rhombus;whiteSpace=wrap;html=1;" vertex="1" parent="1">
          <mxGeometry x="1570" y="285" width="180" height="90" as="geometry" />
        </mxCell>
        <mxCell id="H5KjhLBraapCvkf6L1EC-117" value="FOR i 1... NH" style="text;html=1;align=center;verticalAlign=middle;resizable=0;points=[];autosize=1;strokeColor=none;fillColor=none;" vertex="1" parent="1">
          <mxGeometry x="1500" y="240" width="100" height="30" as="geometry" />
        </mxCell>
        <mxCell id="H5KjhLBraapCvkf6L1EC-120" value="FIN" style="ellipse;whiteSpace=wrap;html=1;aspect=fixed;" vertex="1" parent="1">
          <mxGeometry x="1650" y="580" width="50" height="50" as="geometry" />
        </mxCell>
        <mxCell id="H5KjhLBraapCvkf6L1EC-124" style="edgeStyle=orthogonalEdgeStyle;rounded=0;orthogonalLoop=1;jettySize=auto;html=1;exitX=0.5;exitY=1;exitDx=0;exitDy=0;entryX=0.5;entryY=0;entryDx=0;entryDy=0;entryPerimeter=0;" edge="1" parent="1" source="H5KjhLBraapCvkf6L1EC-111" target="H5KjhLBraapCvkf6L1EC-116">
          <mxGeometry relative="1" as="geometry" />
        </mxCell>
        <mxCell id="H5KjhLBraapCvkf6L1EC-127" style="edgeStyle=orthogonalEdgeStyle;rounded=0;orthogonalLoop=1;jettySize=auto;html=1;exitX=0.5;exitY=1;exitDx=0;exitDy=0;entryX=0.5;entryY=0;entryDx=0;entryDy=0;" edge="1" parent="1" source="H5KjhLBraapCvkf6L1EC-126" target="H5KjhLBraapCvkf6L1EC-108">
          <mxGeometry relative="1" as="geometry" />
        </mxCell>
        <mxCell id="H5KjhLBraapCvkf6L1EC-126" value="NT = NT + 1" style="rounded=0;whiteSpace=wrap;html=1;" vertex="1" parent="1">
          <mxGeometry x="270" y="715" width="110" height="50" as="geometry" />
        </mxCell>
        <mxCell id="H5KjhLBraapCvkf6L1EC-133" value="" style="edgeStyle=orthogonalEdgeStyle;rounded=0;orthogonalLoop=1;jettySize=auto;html=1;exitX=0.5;exitY=1;exitDx=0;exitDy=0;exitPerimeter=0;entryX=0.5;entryY=0;entryDx=0;entryDy=0;" edge="1" parent="1" source="H5KjhLBraapCvkf6L1EC-67" target="H5KjhLBraapCvkf6L1EC-196">
          <mxGeometry relative="1" as="geometry">
            <mxPoint x="-235" y="970" as="sourcePoint" />
            <mxPoint x="-140" y="890" as="targetPoint" />
          </mxGeometry>
        </mxCell>
        <mxCell id="H5KjhLBraapCvkf6L1EC-146" value="ITEA(i) = H.V." style="rounded=0;whiteSpace=wrap;html=1;" vertex="1" parent="1">
          <mxGeometry x="-285" y="770" width="110" height="50" as="geometry" />
        </mxCell>
        <mxCell id="H5KjhLBraapCvkf6L1EC-150" value="SUMAR_ESPERA_ACTIVA" style="shape=hexagon;perimeter=hexagonPerimeter2;whiteSpace=wrap;html=1;fixedSize=1;" vertex="1" parent="1">
          <mxGeometry x="-848.5" y="70" width="167" height="50" as="geometry" />
        </mxCell>
        <mxCell id="H5KjhLBraapCvkf6L1EC-151" value="" style="shape=card;whiteSpace=wrap;html=1;" vertex="1" parent="1">
          <mxGeometry x="-930" y="150" width="330" height="248.75" as="geometry" />
        </mxCell>
        <mxCell id="H5KjhLBraapCvkf6L1EC-152" style="edgeStyle=orthogonalEdgeStyle;rounded=0;orthogonalLoop=1;jettySize=auto;html=1;exitX=0.5;exitY=1;exitDx=0;exitDy=0;entryX=0.5;entryY=0;entryDx=0;entryDy=0;" edge="1" parent="1" source="H5KjhLBraapCvkf6L1EC-153" target="H5KjhLBraapCvkf6L1EC-156">
          <mxGeometry relative="1" as="geometry" />
        </mxCell>
        <mxCell id="H5KjhLBraapCvkf6L1EC-153" value="STEA = STEA + T - ITEA(i)" style="rounded=0;whiteSpace=wrap;html=1;" vertex="1" parent="1">
          <mxGeometry x="-842.5" y="260" width="155" height="50" as="geometry" />
        </mxCell>
        <mxCell id="H5KjhLBraapCvkf6L1EC-154" value="FIN" style="ellipse;whiteSpace=wrap;html=1;aspect=fixed;" vertex="1" parent="1">
          <mxGeometry x="-790" y="428.75" width="50" height="50" as="geometry" />
        </mxCell>
        <mxCell id="H5KjhLBraapCvkf6L1EC-155" value="" style="edgeStyle=orthogonalEdgeStyle;rounded=0;orthogonalLoop=1;jettySize=auto;html=1;exitX=0.5;exitY=1;exitDx=0;exitDy=0;exitPerimeter=0;" edge="1" parent="1" source="H5KjhLBraapCvkf6L1EC-151" target="H5KjhLBraapCvkf6L1EC-154">
          <mxGeometry relative="1" as="geometry">
            <mxPoint x="-765" y="555" as="sourcePoint" />
          </mxGeometry>
        </mxCell>
        <mxCell id="H5KjhLBraapCvkf6L1EC-156" value="ITEA(i) = H.V." style="rounded=0;whiteSpace=wrap;html=1;" vertex="1" parent="1">
          <mxGeometry x="-815" y="340" width="110" height="50" as="geometry" />
        </mxCell>
        <mxCell id="H5KjhLBraapCvkf6L1EC-157" value="FOR i 1... NH" style="text;html=1;align=center;verticalAlign=middle;resizable=0;points=[];autosize=1;strokeColor=none;fillColor=none;" vertex="1" parent="1">
          <mxGeometry x="-915" y="147.5" width="100" height="30" as="geometry" />
        </mxCell>
        <mxCell id="H5KjhLBraapCvkf6L1EC-162" style="edgeStyle=orthogonalEdgeStyle;rounded=0;orthogonalLoop=1;jettySize=auto;html=1;exitX=0;exitY=0.5;exitDx=0;exitDy=0;entryX=0.5;entryY=1;entryDx=0;entryDy=0;" edge="1" parent="1" source="H5KjhLBraapCvkf6L1EC-158" target="H5KjhLBraapCvkf6L1EC-30">
          <mxGeometry relative="1" as="geometry" />
        </mxCell>
        <mxCell id="H5KjhLBraapCvkf6L1EC-158" value="TPLL = T + IA" style="rounded=0;whiteSpace=wrap;html=1;" vertex="1" parent="1">
          <mxGeometry x="645" y="1350" width="110" height="50" as="geometry" />
        </mxCell>
        <mxCell id="H5KjhLBraapCvkf6L1EC-164" style="edgeStyle=orthogonalEdgeStyle;rounded=0;orthogonalLoop=1;jettySize=auto;html=1;exitX=0.5;exitY=1;exitDx=0;exitDy=0;entryX=0.5;entryY=0;entryDx=0;entryDy=0;" edge="1" parent="1" source="H5KjhLBraapCvkf6L1EC-163" target="H5KjhLBraapCvkf6L1EC-38">
          <mxGeometry relative="1" as="geometry" />
        </mxCell>
        <mxCell id="H5KjhLBraapCvkf6L1EC-163" value="SUMAR_ESPERA_ACTIVA" style="shape=hexagon;perimeter=hexagonPerimeter2;whiteSpace=wrap;html=1;fixedSize=1;" vertex="1" parent="1">
          <mxGeometry x="800" y="1225" width="167" height="50" as="geometry" />
        </mxCell>
        <mxCell id="H5KjhLBraapCvkf6L1EC-165" style="edgeStyle=orthogonalEdgeStyle;rounded=0;orthogonalLoop=1;jettySize=auto;html=1;exitX=0.5;exitY=1;exitDx=0;exitDy=0;entryX=0.5;entryY=0;entryDx=0;entryDy=0;entryPerimeter=0;" edge="1" parent="1" source="H5KjhLBraapCvkf6L1EC-150" target="H5KjhLBraapCvkf6L1EC-151">
          <mxGeometry relative="1" as="geometry" />
        </mxCell>
        <mxCell id="H5KjhLBraapCvkf6L1EC-167" style="edgeStyle=orthogonalEdgeStyle;rounded=0;orthogonalLoop=1;jettySize=auto;html=1;exitX=0.5;exitY=1;exitDx=0;exitDy=0;entryX=0.5;entryY=0;entryDx=0;entryDy=0;" edge="1" parent="1" source="H5KjhLBraapCvkf6L1EC-166" target="H5KjhLBraapCvkf6L1EC-153">
          <mxGeometry relative="1" as="geometry" />
        </mxCell>
        <mxCell id="H5KjhLBraapCvkf6L1EC-168" value="SI" style="edgeLabel;html=1;align=center;verticalAlign=middle;resizable=0;points=[];" connectable="0" vertex="1" parent="H5KjhLBraapCvkf6L1EC-167">
          <mxGeometry x="-0.1543" relative="1" as="geometry">
            <mxPoint as="offset" />
          </mxGeometry>
        </mxCell>
        <mxCell id="H5KjhLBraapCvkf6L1EC-166" value="ITEA(i) != H.V." style="rhombus;whiteSpace=wrap;html=1;" vertex="1" parent="1">
          <mxGeometry x="-805" y="155" width="80" height="80" as="geometry" />
        </mxCell>
        <mxCell id="H5KjhLBraapCvkf6L1EC-169" value="PROX_TPS(i)" style="shape=hexagon;perimeter=hexagonPerimeter2;whiteSpace=wrap;html=1;fixedSize=1;" vertex="1" parent="1">
          <mxGeometry x="2060" y="70" width="110" height="50" as="geometry" />
        </mxCell>
        <mxCell id="H5KjhLBraapCvkf6L1EC-183" style="edgeStyle=orthogonalEdgeStyle;rounded=0;orthogonalLoop=1;jettySize=auto;html=1;exitX=0.5;exitY=1;exitDx=0;exitDy=0;exitPerimeter=0;entryX=0.5;entryY=0;entryDx=0;entryDy=0;" edge="1" parent="1" source="H5KjhLBraapCvkf6L1EC-170" target="H5KjhLBraapCvkf6L1EC-182">
          <mxGeometry relative="1" as="geometry" />
        </mxCell>
        <mxCell id="H5KjhLBraapCvkf6L1EC-170" value="" style="shape=card;whiteSpace=wrap;html=1;" vertex="1" parent="1">
          <mxGeometry x="1930" y="235" width="370" height="295" as="geometry" />
        </mxCell>
        <mxCell id="H5KjhLBraapCvkf6L1EC-180" style="edgeStyle=orthogonalEdgeStyle;rounded=0;orthogonalLoop=1;jettySize=auto;html=1;exitX=0.5;exitY=1;exitDx=0;exitDy=0;" edge="1" parent="1" source="H5KjhLBraapCvkf6L1EC-171" target="H5KjhLBraapCvkf6L1EC-178">
          <mxGeometry relative="1" as="geometry" />
        </mxCell>
        <mxCell id="H5KjhLBraapCvkf6L1EC-171" value="MIN = TPS(j)" style="rounded=0;whiteSpace=wrap;html=1;" vertex="1" parent="1">
          <mxGeometry x="2160" y="375" width="110" height="50" as="geometry" />
        </mxCell>
        <mxCell id="H5KjhLBraapCvkf6L1EC-173" style="edgeStyle=orthogonalEdgeStyle;rounded=0;orthogonalLoop=1;jettySize=auto;html=1;exitX=0.5;exitY=1;exitDx=0;exitDy=0;entryX=0.5;entryY=0;entryDx=0;entryDy=0;" edge="1" parent="1" source="H5KjhLBraapCvkf6L1EC-169" target="H5KjhLBraapCvkf6L1EC-174">
          <mxGeometry relative="1" as="geometry">
            <mxPoint x="2050" y="190" as="targetPoint" />
          </mxGeometry>
        </mxCell>
        <mxCell id="H5KjhLBraapCvkf6L1EC-174" value="MIN = H.V." style="rounded=0;whiteSpace=wrap;html=1;" vertex="1" parent="1">
          <mxGeometry x="2055" y="150" width="120" height="60" as="geometry" />
        </mxCell>
        <mxCell id="H5KjhLBraapCvkf6L1EC-175" style="edgeStyle=orthogonalEdgeStyle;rounded=0;orthogonalLoop=1;jettySize=auto;html=1;exitX=0.5;exitY=1;exitDx=0;exitDy=0;entryX=0.5;entryY=0;entryDx=0;entryDy=0;entryPerimeter=0;" edge="1" parent="1" source="H5KjhLBraapCvkf6L1EC-174" target="H5KjhLBraapCvkf6L1EC-170">
          <mxGeometry relative="1" as="geometry" />
        </mxCell>
        <mxCell id="H5KjhLBraapCvkf6L1EC-176" value="FOR j 1... NH" style="text;html=1;align=center;verticalAlign=middle;resizable=0;points=[];autosize=1;strokeColor=none;fillColor=none;" vertex="1" parent="1">
          <mxGeometry x="1940" y="235" width="100" height="30" as="geometry" />
        </mxCell>
        <mxCell id="H5KjhLBraapCvkf6L1EC-179" style="edgeStyle=orthogonalEdgeStyle;rounded=0;orthogonalLoop=1;jettySize=auto;html=1;exitX=1;exitY=0.5;exitDx=0;exitDy=0;entryX=0.5;entryY=0;entryDx=0;entryDy=0;" edge="1" parent="1" source="H5KjhLBraapCvkf6L1EC-177" target="H5KjhLBraapCvkf6L1EC-171">
          <mxGeometry relative="1" as="geometry" />
        </mxCell>
        <mxCell id="H5KjhLBraapCvkf6L1EC-181" value="SI" style="edgeLabel;html=1;align=center;verticalAlign=middle;resizable=0;points=[];" connectable="0" vertex="1" parent="H5KjhLBraapCvkf6L1EC-179">
          <mxGeometry x="-0.4551" y="-1" relative="1" as="geometry">
            <mxPoint as="offset" />
          </mxGeometry>
        </mxCell>
        <mxCell id="H5KjhLBraapCvkf6L1EC-177" value="TPS(j) &amp;gt; MIN" style="rhombus;whiteSpace=wrap;html=1;" vertex="1" parent="1">
          <mxGeometry x="2075" y="260" width="80" height="80" as="geometry" />
        </mxCell>
        <mxCell id="H5KjhLBraapCvkf6L1EC-178" value="i = j" style="rounded=0;whiteSpace=wrap;html=1;" vertex="1" parent="1">
          <mxGeometry x="2160" y="460" width="110" height="50" as="geometry" />
        </mxCell>
        <mxCell id="H5KjhLBraapCvkf6L1EC-182" value="FIN" style="ellipse;whiteSpace=wrap;html=1;aspect=fixed;" vertex="1" parent="1">
          <mxGeometry x="2090" y="570" width="50" height="50" as="geometry" />
        </mxCell>
        <mxCell id="H5KjhLBraapCvkf6L1EC-186" style="edgeStyle=orthogonalEdgeStyle;rounded=0;orthogonalLoop=1;jettySize=auto;html=1;exitX=0.5;exitY=1;exitDx=0;exitDy=0;entryX=0.5;entryY=0;entryDx=0;entryDy=0;" edge="1" parent="1" source="H5KjhLBraapCvkf6L1EC-185" target="H5KjhLBraapCvkf6L1EC-12">
          <mxGeometry relative="1" as="geometry" />
        </mxCell>
        <mxCell id="H5KjhLBraapCvkf6L1EC-185" value="STLL = STLL + T" style="rounded=0;whiteSpace=wrap;html=1;" vertex="1" parent="1">
          <mxGeometry x="270" y="425" width="110" height="50" as="geometry" />
        </mxCell>
        <mxCell id="H5KjhLBraapCvkf6L1EC-195" style="edgeStyle=orthogonalEdgeStyle;rounded=0;orthogonalLoop=1;jettySize=auto;html=1;exitX=0.5;exitY=1;exitDx=0;exitDy=0;entryX=0.5;entryY=0;entryDx=0;entryDy=0;" edge="1" parent="1" source="H5KjhLBraapCvkf6L1EC-194" target="H5KjhLBraapCvkf6L1EC-71">
          <mxGeometry relative="1" as="geometry" />
        </mxCell>
        <mxCell id="H5KjhLBraapCvkf6L1EC-194" value="STP = STP + TP" style="rounded=0;whiteSpace=wrap;html=1;" vertex="1" parent="1">
          <mxGeometry x="-290" y="630" width="110" height="50" as="geometry" />
        </mxCell>
        <mxCell id="H5KjhLBraapCvkf6L1EC-197" style="edgeStyle=orthogonalEdgeStyle;rounded=0;orthogonalLoop=1;jettySize=auto;html=1;exitX=0.5;exitY=1;exitDx=0;exitDy=0;entryX=0.5;entryY=0;entryDx=0;entryDy=0;" edge="1" parent="1" source="H5KjhLBraapCvkf6L1EC-196" target="H5KjhLBraapCvkf6L1EC-76">
          <mxGeometry relative="1" as="geometry" />
        </mxCell>
        <mxCell id="H5KjhLBraapCvkf6L1EC-196" value="NHO = NB" style="rounded=0;whiteSpace=wrap;html=1;" vertex="1" parent="1">
          <mxGeometry x="-290" y="890" width="110" height="50" as="geometry" />
        </mxCell>
      </root>
    </mxGraphModel>
  </diagram>
</mxfile>
